<svg height="512" viewBox="0 0 128 128" width="512" xmlns="http://www.w3.org/2000/svg"><g id="Layer_3" data-name="Layer 3"><path d="m112.35 118.06a16.434 16.434 0 0 0 -6.71-6.36 26.968 26.968 0 0 0 6.94-18.08c.03-1.09-.49-2.18-1.75-2.18a26.768 26.768 0 0 0 -14.24 4.07 22.116 22.116 0 0 0 -10.2-13.19 1.763 1.763 0 0 0 -1.75 0 22.054 22.054 0 0 0 -8.42 8.75l2.08-34.74a21 21 0 0 0 -11.56-20.15l-3.5-1.76v-28.67a5.757 5.757 0 0 0 -5.75-5.75h-21.24a5.757 5.757 0 0 0 -5.75 5.75v28.67l-3.5 1.76a21 21 0 0 0 -11.56 20.14l4.18 70.03a1.753 1.753 0 0 0 1.75 1.65h51c.04 0 .08-.01.12-.01.12 0 .24.01.37.01a16.421 16.421 0 0 0 12.65-6.01 16.362 16.362 0 0 0 26.84-2.17 1.782 1.782 0 0 0 0-1.76zm-15.06-18.83a23.338 23.338 0 0 1 11.75-4.22 23.571 23.571 0 0 1 -17.58 21.4c4.13-4.85 6.47-10.74 5.83-17.18zm-17.72 17.18a23.924 23.924 0 0 1 -17.58-21.4 23.718 23.718 0 0 1 11.75 4.22 22.119 22.119 0 0 0 5.83 17.18zm-14.2-4.71a1.1 1.1 0 0 0 -.15.08c-.08.04-.17.09-.25.14l.04-.64zm-3.59-5.06-.48 8.03c-.01.01-.02.03-.04.04h-28.82l-2.07-34.71h33l-.69 11.56c-.83-.08-1.66-.12-2.48-.12a1.752 1.752 0 0 0 -1.75 1.75 27.81 27.81 0 0 0 3.33 13.45zm2.44-40.89-.64 10.75h-33.42l-.64-10.75zm-34.91-3.5-.4-6.69a7.634 7.634 0 0 1 4.16-7.32l1.97-.99h23.66l1.96.99a7.6 7.6 0 0 1 4.17 7.28l-.4 6.73zm4.69-56.5a2.253 2.253 0 0 1 2.25-2.25h21.24a2.253 2.253 0 0 1 2.25 2.25v17h-25.74zm0 20.5h25.74v7.5h-25.74zm-10.98 98.25-4.09-68.4a17.534 17.534 0 0 1 9.64-16.8l4.09-2.05h28.42l4.09 2.05a17.539 17.539 0 0 1 9.64 16.81l-2.29 38.31a26.845 26.845 0 0 0 -6.37-2.31l2.17-36.38a11.081 11.081 0 0 0 -6.08-10.62l-2.34-1.18a1.762 1.762 0 0 0 -.79-.18h-24.49a1.75 1.75 0 0 0 -.78.18l-2.34 1.18a11.12 11.12 0 0 0 -6.08 10.66l3.62 60.79a1.753 1.753 0 0 0 1.75 1.65h27.83c-.59 1.29.68 2.66 1.44 3.61a16.512 16.512 0 0 0 2.67 2.68zm49.84 0a13.023 13.023 0 0 1 -10.59-5.56 12.926 12.926 0 0 1 5.8-4.63 27.194 27.194 0 0 0 14.12 6.18 12.949 12.949 0 0 1 -9.33 4.01zm12.65-7.62a18.528 18.528 0 0 1 0-30.99 18.514 18.514 0 0 1 0 30.99zm12.66 7.62a12.949 12.949 0 0 1 -9.33-4.01 27.261 27.261 0 0 0 14.13-6.18 12.886 12.886 0 0 1 5.79 4.63 12.93 12.93 0 0 1 -10.59 5.56z"/><path d="m54.057 83.375h-14.375a1.75 1.75 0 0 0 0 3.5h14.375a1.75 1.75 0 1 0 0-3.5z"/><path d="m51.619 90.25h-9.5a1.75 1.75 0 0 0 0 3.5h9.5a1.75 1.75 0 1 0 0-3.5z"/></g></svg>