<svg id="Layer_1" height="512" viewBox="0 0 128 128" width="512" xmlns="http://www.w3.org/2000/svg" data-name="Layer 1"><path d="m107.348 115.25h-10.068a13.294 13.294 0 0 0 4.365-9.841 13.431 13.431 0 0 0 -8.466-12.416 18.759 18.759 0 0 0 -14.021-14.61v-19.7a6.5 6.5 0 0 0 -3.506-5.632l-2.613-1.424a2.971 2.971 0 0 1 -1.681-2.559c0-3.621-3.243-6.567-7.229-6.568v-17.495a1.75 1.75 0 0 0 -1.75-1.75h-4.623v-5.63h7.269l7.4 5.246a4.188 4.188 0 0 0 4.846-6.833l-9.109-6.465a1.749 1.749 0 0 0 -1.013-.323h-28.331a4.188 4.188 0 0 0 0 8.375h8.938v5.63h-4.622a1.75 1.75 0 0 0 -1.75 1.75v17.495c-3.986 0-7.229 2.947-7.229 6.568a2.971 2.971 0 0 1 -1.68 2.559l-2.614 1.423a6.5 6.5 0 0 0 -3.506 5.632v55.234a4.416 4.416 0 0 0 .229 1.333h-5.932a1.75 1.75 0 0 0 0 3.5h86.7a1.75 1.75 0 0 0 0-3.5zm-17.462-20.714a1.749 1.749 0 0 0 1.234 1.446 9.84 9.84 0 0 1 -2.82 19.268h-26.257a12.2 12.2 0 0 1 -2.209-24.2 1.751 1.751 0 0 0 1.267-.973 15.179 15.179 0 0 1 28.785 4.455zm-60.031-27.786h19.145v27.557a15.531 15.531 0 0 0 -2.189 12.488h-16.956zm8.275-53.312a.689.689 0 0 1 .688-.687h27.774l8.653 6.143a.688.688 0 0 1 .161.962.692.692 0 0 1 -.958.161l-7.854-5.568a1.751 1.751 0 0 0 -1.012-.322h-26.764a.689.689 0 0 1 -.687-.689zm13.125 4.188h3v5.63h-3zm9.372 9.13v15.744h-15.743v-15.745zm-29.092 29.368 2.613-1.424a6.5 6.5 0 0 0 3.506-5.632c0-1.691 1.674-3.068 3.731-3.068h22.742c2.057 0 3.73 1.376 3.73 3.068a6.5 6.5 0 0 0 3.506 5.632l2.613 1.424a2.969 2.969 0 0 1 1.681 2.558v19.212c-.274-.012-.545-.037-.821-.037a18.791 18.791 0 0 0 -16.5 9.939 15.626 15.626 0 0 0 -5.836 2.785v-25.581a1.75 1.75 0 0 0 -1.75-1.75h-20.895v-4.568a2.971 2.971 0 0 1 1.68-2.558zm.078 59.126c-.953 0-1.758-.611-1.758-1.333v-3.622h18.271a15.8 15.8 0 0 0 4.054 4.955z"/><path d="m60.251 76.086a5.168 5.168 0 1 0 -5.168-5.168 5.174 5.174 0 0 0 5.168 5.168zm0-6.836a1.668 1.668 0 1 1 -1.668 1.668 1.671 1.671 0 0 1 1.668-1.668z"/><path d="m90.731 70.632a6.858 6.858 0 1 0 -6.857-6.858 6.866 6.866 0 0 0 6.857 6.858zm0-10.216a3.358 3.358 0 1 1 -3.357 3.358 3.362 3.362 0 0 1 3.357-3.357z"/><path d="m69.978 87.284a6.5 6.5 0 0 0 -2.462 8.856 1.75 1.75 0 1 0 3.047-1.722 3 3 0 0 1 5.224-2.952 1.75 1.75 0 1 0 3.047-1.721 6.5 6.5 0 0 0 -8.855-2.462z"/><path d="m77.67 104.746a1.75 1.75 0 1 0 2.926 1.92 1.539 1.539 0 0 1 2.574 1.687 1.75 1.75 0 1 0 2.926 1.92 5.038 5.038 0 0 0 -8.426-5.527z"/></svg>