<svg id="Layer_1" enable-background="new 0 0 128 128" height="512" viewBox="0 0 128 128" width="512" xmlns="http://www.w3.org/2000/svg" xmlns:xlink="http://www.w3.org/1999/xlink"><linearGradient id="SVGID_1_" gradientUnits="userSpaceOnUse" x1="108.856" x2="19.061" y1="110.397" y2="20.602"><stop offset="0" stop-color="#4db6ac"/><stop offset="1" stop-color="#ba68c8"/></linearGradient><path d="m37.4 113.3h16.6l8.2 6.6v6.3c0 1 .8 1.8 1.8 1.8s1.8-.8 1.8-1.8v-6.2l8.2-6.6h16.6c4.9 0 9.8-1 14.3-2.8.9-.4 1.3-1.4.9-2.3s-1.4-1.3-2.3-.9c-4.1 1.7-8.5 2.6-13 2.6h-12.3l8.7-7.1 9.5.9h.2c1 0 1.7-.8 1.7-1.8 0-.9-.7-1.7-1.6-1.7l-6-.5 5.4-4.4h.2l9.8.9h.2c1 0 1.7-.8 1.7-1.8 0-.9-.7-1.7-1.6-1.7l-6.5-.6 5.9-4.8c.7-.6.8-1.7.2-2.5-.6-.7-1.6-.8-2.4-.2l-6.2 5.1-.3-6.8c-.1-1-.9-1.7-1.9-1.6s-1.7.9-1.6 1.9l.8 8.9-6.5 5.3-.6-7c-.1-1-.9-1.7-1.9-1.6s-1.7.9-1.6 1.9l.8 9.3-9.6 7.7v-3.6c0-18.7 15.2-33.9 33.9-33.9h15.5v5.5c0 7.1-2.2 14-6.4 19.8-.6.8-.4 1.9.4 2.4.8.6 1.9.4 2.4-.4 4.6-6.4 7-14 7-21.8v-7.2c0-1-.8-1.8-1.8-1.8h-17c-20.7 0-37.4 16.8-37.4 37.4v6.4l-5.8 4.7v-42.6l6.6-5.4h7.7c20.7 0 37.4-16.8 37.4-37.4 0-1-.8-1.8-1.8-1.8h-8.3c-20.3 0-36.9 16.2-37.4 36.6l-4.3 3.5v-25.3c11.6-7.4 15.1-22.8 7.7-34.4-2.2-3.4-5.1-6.3-8.6-8.3-.5-.3-1.2-.3-1.8 0-11.9 6.9-16 22.1-9.1 34.1 2 3.5 4.9 6.5 8.3 8.6v25.2l-4.2-3.4c-.2-11.1-5.4-21.6-14.2-28.5-.8-.6-1.9-.5-2.5.3s-.5 1.9.3 2.5c7.1 5.6 11.6 13.8 12.6 22.7l-7.1-5.8.7-7.6c.1-1-.6-1.8-1.6-1.9s-1.8.6-1.9 1.6l-.5 5.2-4.8-3.9.7-7.2c.1-1-.6-1.8-1.6-1.9s-1.8.6-1.9 1.6l-.4 4.9-4.8-3.9c-.8-.6-1.9-.4-2.4.4-.5.7-.4 1.8.2 2.4l4.3 3.5-4.6.4c-1 .1-1.7.9-1.6 1.9.1.9.8 1.6 1.7 1.6h.2l8.2-.7h.1l3.9 3.1-4.2.4c-1 .1-1.7.9-1.6 1.9.1.9.8 1.6 1.7 1.6h.2l7.8-.7 6.5 5.3h-3.4c-18 0-32.9-14.1-33.9-32.2h6.5c4.5 0 8.9.9 13 2.6.9.4 1.9 0 2.3-.8.4-.9 0-1.9-.8-2.3-.1-.2-.1-.2-.2-.2-4.5-1.9-9.4-2.9-14.3-2.9h-8.3c-1 0-1.8.8-1.8 1.8 0 20.7 16.8 37.4 37.4 37.4h7.7l6.6 5.4v42.8l-5.8-4.7v-6.4c0-20.7-16.8-37.4-37.4-37.4h-17.3c-1 0-1.8.8-1.8 1.8v7.2c.1 20.6 16.8 37.3 37.5 37.3zm70-81.7h6.5c-1 18-15.8 32.1-33.9 32.2h-3.4l6.5-5.3 7.8.7h.2c1 0 1.7-.8 1.7-1.8 0-.9-.7-1.7-1.6-1.7l-4.2-.4 3.9-3.1h.1l8.2.7h.2c1 0 1.7-.8 1.7-1.8 0-.9-.7-1.6-1.5-1.7l-4.6-.4 4.3-3.5c.7-.6.8-1.7.2-2.5-.6-.7-1.6-.8-2.4-.2l-4.8 3.9-.4-4.9c-.1-1-.9-1.7-1.9-1.6s-1.7.9-1.6 1.9l.7 7.2-4.9 3.9-.6-5.2c-.1-1-.9-1.7-1.9-1.6s-1.7.9-1.6 1.9l.7 7.6-7.1 5.8c2-17.1 16.5-30 33.7-30.1zm-53.3-9.7c0-7.3 3.7-14.1 9.9-18.1 10 6.4 12.9 19.7 6.5 29.6-1.3 2-2.9 3.7-4.7 5.2v-10.9l4.7-4.1c.7-.7.7-1.8.1-2.5s-1.7-.7-2.4-.2l-2.4 2.1v-5.2c0-1-.8-1.8-1.8-1.8s-1.8.8-1.8 1.8v5.2l-2.4-2.1c-.8-.6-1.9-.5-2.5.3-.6.7-.5 1.7.2 2.4l4.7 4.1v10.9c-5.1-4-8.1-10.2-8.1-16.7zm-50.6 48.5h15.5c18.7 0 33.9 15.2 33.9 33.9v3.6l-9.6-7.7.8-9.3c.1-1-.6-1.8-1.6-1.9s-1.8.6-1.9 1.6l-.6 7-6.5-5.3.8-8.9c.1-1-.6-1.8-1.6-1.9s-1.8.6-1.9 1.6l-.6 6.6-6.2-5.1c-.8-.6-1.9-.4-2.4.4-.5.7-.4 1.8.2 2.4l5.9 4.8-6.5.6c-1 .1-1.7.9-1.6 1.9.1.9.8 1.6 1.7 1.6h.2l9.8-.9h.2l5.4 4.4-6 .5c-1 .1-1.7.9-1.6 1.9.1.9.8 1.6 1.7 1.6h.2l9.5-.9 8.7 7.1h-12c-18.7 0-33.9-15.2-33.9-33.9zm109.2 35.3c.4 0 .8-.1 1.1-.4.4-.3.8-.7 1.2-1 .7-.6.8-1.7.1-2.5-.6-.7-1.7-.8-2.4-.2-.4.3-.7.6-1.1.9-.8.6-.9 1.7-.3 2.5.3.4.8.7 1.4.7z" fill="url(#SVGID_1_)"/></svg>