<svg height="512" viewBox="0 0 128 128" width="512" xmlns="http://www.w3.org/2000/svg"><g id="Layer_3" data-name="Layer 3"><path d="m44.307 55.878a1.75 1.75 0 0 0 -3.388-.618 5.62 5.62 0 0 1 -3.553 1.016 5.846 5.846 0 0 1 -3.482-.959 1.75 1.75 0 0 0 -2.172 2.744 9.056 9.056 0 0 0 5.654 1.715c3.697-.001 6.941-1.822 6.941-3.898z"/><path d="m67.229 55.315a5.85 5.85 0 0 1 -3.484.96 5.614 5.614 0 0 1 -3.553-1.016 1.75 1.75 0 0 0 -3.388.618c0 2.076 3.243 3.9 6.94 3.9a9.06 9.06 0 0 0 5.656-1.715 1.75 1.75 0 0 0 -2.17-2.746z"/><path d="m59.212 81.114-4.123-1.722a5.713 5.713 0 0 0 -4.533.043 5.708 5.708 0 0 0 -4.531-.043l-4.125 1.722a1.751 1.751 0 0 0 -1.039 1.975c.046.217 1.211 5.31 9.694 5.31s9.649-5.093 9.7-5.31a1.751 1.751 0 0 0 -1.043-1.975z"/><path d="m50.912 74.742h2.794a1.75 1.75 0 0 0 0-3.5h-2.794a.651.651 0 0 1 -.643-.747l1.015-6.695a1.75 1.75 0 0 0 -3.461-.525l-1.015 6.692a4.151 4.151 0 0 0 4.1 4.771z"/><path d="m98.955 66.5a11.261 11.261 0 0 0 .12-1.583 11.4 11.4 0 0 0 -1.349-5.385 54.649 54.649 0 0 0 .7-8.569c0-16.1-7.271-31.435-19.449-41.019a45.584 45.584 0 0 0 -28.421-9.944 46.424 46.424 0 0 0 -31.142 12.307 51.752 51.752 0 0 0 -15.584 27.588 54.347 54.347 0 0 0 -.445 19.642 11.44 11.44 0 0 0 5.076 15.67 50.213 50.213 0 0 0 11.663 15.093 32.994 32.994 0 0 0 45.612 16.461 30.871 30.871 0 1 0 33.219-40.261zm-19.817-51.837a49.126 49.126 0 0 1 15.786 36.3c0 1.626-.082 3.272-.245 4.925a11.522 11.522 0 0 0 -5.888-2.382 15.709 15.709 0 0 0 -1.108-1.878c-1.817-2.667-5.575-6.73-13.155-10.938a88.4 88.4 0 0 1 -18.405-13.861c4.877-1.421 9.977-1.855 14.662-3.923 3.664-1.62 7.115-4.28 8.353-8.243zm16.322 51.59q-.2.008-.4 0a31.009 31.009 0 0 0 -8.5 1.19 48.562 48.562 0 0 0 1.464-10.459 8.028 8.028 0 0 1 7.436 9.269zm-10.96-7.93c-16.5-3.513-21.7-15.723-23.324-22.407a119.577 119.577 0 0 0 13.2 8.729c3.776 2.251 7.51 4.965 10.13 8.55.059 1.705.059 3.426-.006 5.128zm-27.952-26.3c-8.513 16.636-29.567 20.421-38.078 21.277 8.746-11.138 20.513-20.436 33.907-25.25 1.341 1.373 2.739 2.691 4.169 3.971zm-39.738-11.85a45.117 45.117 0 0 1 15.79-12.608 41.527 41.527 0 0 1 17.956-4.065 42.056 42.056 0 0 1 25.534 8.643c-.49 4.657-4.996 7.125-8.99 8.448a73.659 73.659 0 0 1 -7.562 1.765 66.32 66.32 0 0 0 -8.338 2.388 77.405 77.405 0 0 0 -26.562 16.608 79.362 79.362 0 0 0 -10.675 12.113 11.466 11.466 0 0 0 -7.53 2.428c-.162-1.65-.244-3.3-.244-4.925a49.344 49.344 0 0 1 10.621-30.795zm-11.274 44.748a8.035 8.035 0 0 1 7.544-7.939c-.008 5.282 1.464 10.468 2.584 15.6a8.036 8.036 0 0 1 -10.128-7.661zm7.553 11.469h.348a11.163 11.163 0 0 0 2.978-.373l1.568 7.18a46.867 46.867 0 0 1 -4.894-6.807zm51.72 26.9a29.851 29.851 0 0 1 -30.742-1.317 29.486 29.486 0 0 1 -9.509-10.483 37.551 37.551 0 0 1 -3.367-10.017c-.591-2.73-1.142-5.473-1.791-8.194l-2.142-9.81c-.1-.446-.179-.9-.256-1.346a29.9 29.9 0 0 1 -.422-4.954v-.187c6.611-.377 30.05-2.935 41.266-20.232 1.925 7.57 7.933 21.315 26.313 25.061-.372 2.363-.972 4.7-1.483 7.034a31.157 31.157 0 0 0 -17.867 34.443zm30.255 21.21a27.373 27.373 0 1 1 27.375-27.375 27.636 27.636 0 0 1 -27.375 27.375z"/><path d="m113.834 96.3h-1.234a11.081 11.081 0 0 0 -17.536-10.75 11.089 11.089 0 0 0 -17.255 12c-1.187 0-2.752-.21-3.19 1.244-.521 1.729 1.15 2.256 2.462 2.256h1.844c.83 0 .877.393 1.458 1.019.307.331.635.644.954.963l10.238 10.239c1.051 1.052 3.073 3.905 4.726 2.252l13.214-13.223a11.044 11.044 0 0 0 1.873-2.508h2.446a1.75 1.75 0 1 0 0-3.5zm-6.794 3.53-11.976 11.976-10.764-10.761c1.322 0 3.428.4 4.5-.517 1.007-.866 1.905-1.905 2.845-2.845l2.646 2.646c.781.781 1.95 2.458 3.183 2.458a1.75 1.75 0 0 0 1.237-.513l2.478-2.478h5.879c-.008.012-.017.023-.028.034zm1.988-3.533h-8.561a1.75 1.75 0 0 0 -1.237.513l-1.753 1.753-3.442-3.443c-.379-.378-.741-.8-1.149-1.149a1.889 1.889 0 0 0 -2.754.279c-.7.681-1.376 1.376-2.064 2.064-.318.318-.815 1.064-1.241 1.231a7.407 7.407 0 0 1 -2.149 0 14.86 14.86 0 0 1 -2.826 0c-.487-.1-.447-.23-.632-.824a7.586 7.586 0 0 1 8.808-9.69 7.574 7.574 0 0 1 3.331 1.631c.868.736 1.914 1.46 2.943.431a7.585 7.585 0 0 1 12.726 7.2z"/></g></svg>