<svg height="512" viewBox="0 0 128 128" width="512" xmlns="http://www.w3.org/2000/svg"><g id="Layer_3" data-name="Layer 3"><path d="m63.988 62.967c6.362 0 7.268-3.967 7.3-4.136a1.751 1.751 0 0 0 -1.039-1.975l-2.888-1.205a4.516 4.516 0 0 0 -3.377-.055 4.523 4.523 0 0 0 -3.376.054l-2.889 1.206a1.751 1.751 0 0 0 -1.039 1.975c.04.169.944 4.136 7.308 4.136z"/><path d="m64.237 53.4h1.957a1.75 1.75 0 0 0 0-3.5h-1.876l.7-4.608a1.75 1.75 0 0 0 -3.461-.523l-.71 4.687a3.432 3.432 0 0 0 3.39 3.944z"/><path d="m105.908 71.249a1.75 1.75 0 0 0 3.5 0 7.158 7.158 0 0 1 1.687-4.75 11 11 0 0 0 0-13.5 7.525 7.525 0 0 1 0-9.5 10.49 10.49 0 0 0 2.313-6.746 1.75 1.75 0 0 0 -3.5 0 7.147 7.147 0 0 1 -1.687 4.746 10.994 10.994 0 0 0 0 13.493 7.534 7.534 0 0 1 0 9.5 10.494 10.494 0 0 0 -2.313 6.757z"/><path d="m127.942 46.761a1.75 1.75 0 1 0 -3.5 0 7.147 7.147 0 0 1 -1.687 4.746 10.994 10.994 0 0 0 0 13.493 7.534 7.534 0 0 1 0 9.5 10.494 10.494 0 0 0 -2.313 6.748 1.75 1.75 0 0 0 3.5 0 7.158 7.158 0 0 1 1.687-4.75 11 11 0 0 0 0-13.5 7.525 7.525 0 0 1 0-9.5 10.49 10.49 0 0 0 2.313-6.737z"/><path d="m14.567 59.751a10.494 10.494 0 0 0 2.314 6.749 7.158 7.158 0 0 1 1.687 4.75 1.75 1.75 0 0 0 3.5 0 10.494 10.494 0 0 0 -2.314-6.75 7.534 7.534 0 0 1 0-9.5 10.994 10.994 0 0 0 0-13.493 7.147 7.147 0 0 1 -1.687-4.746 1.75 1.75 0 1 0 -3.5 0 10.49 10.49 0 0 0 2.313 6.746 7.525 7.525 0 0 1 0 9.5 10.5 10.5 0 0 0 -2.313 6.744z"/><path d="m.033 69.751a10.494 10.494 0 0 0 2.314 6.749 7.158 7.158 0 0 1 1.687 4.75 1.75 1.75 0 0 0 3.5 0 10.494 10.494 0 0 0 -2.314-6.75 7.534 7.534 0 0 1 0-9.5 10.491 10.491 0 0 0 2.313-6.748 10.487 10.487 0 0 0 -2.313-6.745 7.147 7.147 0 0 1 -1.687-4.746 1.75 1.75 0 0 0 -3.5 0 10.49 10.49 0 0 0 2.313 6.746 7.146 7.146 0 0 1 1.687 4.745 7.158 7.158 0 0 1 -1.686 4.748 10.5 10.5 0 0 0 -2.314 6.751z"/><path d="m99.42 86.77-14.91-1.47a5.213 5.213 0 0 1 -4.69-4.55l-.97-7.56a23.586 23.586 0 0 0 6.89-9.1 35.738 35.738 0 0 0 8.12-10.49 8.579 8.579 0 0 0 4.64-7.6 8.449 8.449 0 0 0 -.93-3.85 38.519 38.519 0 0 0 .47-5.93 37.228 37.228 0 0 0 -13.82-29.14 32.718 32.718 0 0 0 -32.96-4.46 35.568 35.568 0 0 0 -19.243 21.153 38.322 38.322 0 0 0 -1.607 18.367 8.525 8.525 0 0 0 3.71 11.46 35.738 35.738 0 0 0 8.12 10.49 23.661 23.661 0 0 0 6.88 9.1l-.96 7.56a5.232 5.232 0 0 1 -4.7 4.55l-14.91 1.47a24.1 24.1 0 0 0 -21.81 24.06v15.42a1.746 1.746 0 0 0 1.75 1.75h111a1.746 1.746 0 0 0 1.75-1.75v-15.42a24.1 24.1 0 0 0 -21.82-24.06zm-12.16-46.05a19.728 19.728 0 0 1 -14.9-13.66 60.122 60.122 0 0 0 6.97 4.57c4.43 2.45 6.74 4.75 7.92 6.34.03.92.01 1.84.01 2.75zm.53 16.02.51-2.34c.11.02.23.03.35.05.16.02.32.05.48.06l.18.03c-.48.76-.99 1.49-1.52 2.2zm3.19-5.79a5.013 5.013 0 0 1 -1.93.02c.72-3.28 1.64-6.58 1.71-9.95a5.087 5.087 0 0 1 4.24 4.98 5.08 5.08 0 0 1 -4.02 4.95zm-6.75-39.23a33.933 33.933 0 0 1 10.31 24.5c0 .83-.03 1.66-.09 2.5a8.805 8.805 0 0 0 -2.74-1.1c-.32-.06-.63-.11-.96-.14.22 0-.85-1.81-1-2a20.832 20.832 0 0 0 -1.67-1.84 31.718 31.718 0 0 0 -5.73-4.31 76.962 76.962 0 0 1 -13.44-9.76c5.38-1.43 12.8-1.92 15.32-7.85zm-31.65-5.86a.142.142 0 0 0 .06-.02 28.6 28.6 0 0 1 7.37-2.06c.41-.06.83-.11 1.25-.14a11.12 11.12 0 0 1 1.15-.09 1.067 1.067 0 0 1 .25-.01c.44-.03.89-.04 1.33-.04h.01a28.915 28.915 0 0 1 17.31 5.76c-.83 4.88-7.51 5.61-11.32 6.45-12.75 2.8-24.36 11.17-31.9 21.73a8.632 8.632 0 0 0 -4.56 1.28c-.06-.84-.09-1.67-.09-2.5 0-13.38 7.63-25.4 19.14-30.36zm14.95 17.21c-5.57 10.39-18.4 13.31-24.81 14.12a53.649 53.649 0 0 1 22.41-16.41c.78.79 1.58 1.55 2.4 2.29zm-30.53 27.88a5.071 5.071 0 0 1 -4.02-4.95 5.019 5.019 0 0 1 .73-2.61 5.107 5.107 0 0 1 3.51-2.37 23.778 23.778 0 0 0 .54 4.6l1.17 5.35a5.013 5.013 0 0 1 -1.93-.02zm1.67 3.59.18-.03c.16-.01.32-.04.48-.06.11-.02.23-.03.35-.05l.51 2.34c-.54-.71-1.04-1.44-1.52-2.2zm6.64 7.84c-1.27-2.79-1.65-6.17-2.3-9.14-.48-2.18-.95-4.35-1.43-6.53a29.012 29.012 0 0 1 -.85-5.78 52.12 52.12 0 0 0 9.3-1.55 1.734 1.734 0 0 0 .43 2.22 6.846 6.846 0 0 0 4.29 1.32c2.92 0 5.38-1.49 5.38-3.26a1.746 1.746 0 0 0 -3.32-.76 3.679 3.679 0 0 1 -2.06.52 3.505 3.505 0 0 1 -2.12-.56.963.963 0 0 0 -.25-.16c5.8-1.86 12.21-5.2 16.51-11.22a24.641 24.641 0 0 0 6.85 11.15 1.8 1.8 0 0 0 -.4.23 3.458 3.458 0 0 1 -2.11.56 3.693 3.693 0 0 1 -2.07-.52 1.734 1.734 0 0 0 -1.57-.99 1.752 1.752 0 0 0 -1.75 1.75c0 1.77 2.47 3.26 5.39 3.26a7.052 7.052 0 0 0 4.28-1.31 1.757 1.757 0 0 0 .63-1.07 24.9 24.9 0 0 0 8.78 3.69c-.48 2.58-1.1 5.14-1.66 7.69-.77 3.47-1.27 7.15-2.59 10.46a20.318 20.318 0 0 1 -13.85 11.96 20.4 20.4 0 0 1 -9.67 0 20.332 20.332 0 0 1 -13.84-11.96zm53.18 62.12h-69v-19.75h69zm19.25 0h-15.75v-21.5a1.745 1.745 0 0 0 -1.75-1.75h-72.5a1.746 1.746 0 0 0 -1.75 1.75v21.5h-15.75v-13.67a20.615 20.615 0 0 1 18.65-20.58l14.91-1.46a8.712 8.712 0 0 0 7.83-7.6l.74-5.79a24 24 0 0 0 23.24 0l.74 5.79a8.7 8.7 0 0 0 7.82 7.6l14.91 1.46a20.616 20.616 0 0 1 18.66 20.58z"/></g></svg>