<svg height="480pt" viewBox="-20 0 480 480.00005" width="480pt" xmlns="http://www.w3.org/2000/svg"><path d="m24 480h112c3.570312-.015625 7.089844-.835938 10.296875-2.398438 1.496094 1.535157 3.554687 2.402344 5.703125 2.398438h280c4.417969 0 8-3.582031 8-8v-128c-.03125-27.8125-20.472656-51.386719-48-55.359375v-48.640625c0-4.417969-3.582031-8-8-8h-184c-4.417969 0-8 3.582031-8 8v48.640625c-12.164062 1.746094-23.410156 7.453125-32 16.238281v-152.878906c-.019531-15.886719-9.441406-30.253906-24-36.609375v-27.390625c0-4.417969-3.582031-8-8-8h-24v-32h80c3.234375 0 6.152344-1.949219 7.390625-4.9375s.550781-6.429688-1.734375-8.71875l-16-16c-1.222656-1.222656-2.808594-2.015625-4.519531-2.265625l-112-16c-.375-.0507812-.757813-.078125-1.136719-.078125h-32c-4.417969 0-8 3.582031-8 8v32c0 4.417969 3.582031 8 8 8h32v32h-24c-4.417969 0-8 3.582031-8 8v27.390625c-14.558594 6.355469-23.9804688 20.722656-24 36.609375v304c0 13.253906 10.746094 24 24 24zm400-72h-68.710938c6.28125-15.382812 6.28125-32.617188 0-48h68.710938zm-216-160h16v16c0 4.417969 3.582031 8 8 8s8-3.582031 8-8v-16h16v16c0 4.417969 3.582031 8 8 8s8-3.582031 8-8v-16h40v16c0 4.417969 3.582031 8 8 8s8-3.582031 8-8v-16h16v16c0 4.417969 3.582031 8 8 8s8-3.582031 8-8v-16h16v40h-168zm-8 56h184c22.082031.027344 39.972656 17.917969 40 40h-78.121094c-12.113281-15.167969-30.46875-24-49.878906-24s-37.765625 8.832031-49.878906 24h-86.121094c.027344-22.082031 17.917969-39.972656 40-40zm144 80c0 26.507812-21.492188 48-48 48s-48-21.492188-48-48 21.492188-48 48-48c26.5.027344 47.972656 21.5 48 48zm-184-24h76.710938c-6.28125 15.382812-6.28125 32.617188 0 48h-76.710938zm0 64h86.121094c12.113281 15.167969 30.46875 24 49.878906 24s37.765625-8.832031 49.878906-24h78.121094v40h-264zm-16-56h-56v-160h56zm-112-336v-16h23.433594l108.796875 15.542969.457031.457031zm56 16v32h-16v-32zm-48 48h80v16h-80zm-24 56c0-13.253906 10.746094-24 24-24h80c13.253906 0 24 10.746094 24 24v8h-128zm0 24h16v200c0 4.417969 3.582031 8 8 8s8-3.582031 8-8v-200h96v16h-64c-4.417969 0-8 3.582031-8 8v176c0 4.417969 3.582031 8 8 8h64v72c0 4.417969-3.582031 8-8 8h-112c-4.417969 0-8-3.582031-8-8zm0 0"/><path d="m40 424c4.417969 0 8-3.582031 8-8v-8c0-4.417969-3.582031-8-8-8s-8 3.582031-8 8v8c0 4.417969 3.582031 8 8 8zm0 0"/></svg>