<svg height="512" viewBox="0 0 51 56" width="512" xmlns="http://www.w3.org/2000/svg"><g id="001---Lower-Back-Massager" transform="translate(-1)"><path id="Shape" d="m38.61 37.84c3.443 1.273 6.245 1.511 7.494.641.656037-.5360779.9937579-1.3694494.896-2.211-.1439594-3.8141095-1.0461783-7.5613436-2.654-11.023-.1385961-.3088271-.4240164-.5265757-.7584875-.5786539-.3344711-.0520781-.6725831.0685845-.8985125.3206539-2.9107568 3.2965231-4.5812727 7.504639-4.724 11.9-.0122705.4228345.2476117.8060097.645.951z"/><path id="Shape" d="m17.53 25.023c1.977 1.657 5.564 1.318 7.985-1.572s2.12-6.486.15-8.137c-.849-.711-1.824-1.59-2.636-1.459-.955.15-2.357 1.363-4.412 3.816s-3 4.047-2.984 5.014c.014.728.66 1.302 1.897 2.338z"/><path id="Shape" d="m15.41 18.532c1.0650094-1.4691032 2.2311714-2.8621489 3.49-4.169-4.733-3.741-8.279-7.9-12.7-11.414-1.41966593-.95183407-3.32600284-.69714128-4.446.594-1.0888472 1.32959908-1.00045074 3.26612839.205 4.491 4.224 3.734 8.941 6.493 13.451 10.498zm-3.693-6.64c.1702347-.2034737.4143463-.3309633.6786034-.3544069.2642571-.0234437.527.05908.7303966.2294069l1.533 1.285c.3218978.2701419.4405598.7127137.2969843 1.107658-.1435754.3949442-.5187526.6579889-.9389843.658342-.472 0-.545-.152-2.175-1.518-.4230732-.3544228-.4790183-.9845883-.125-1.408z"/><path id="Shape" d="m11.273 4.718c3.114 2.893 5.883 5.758 9.135 8.287 2.676-2.06 4.258-1.137 6.541.776 5.293 4.434.773 14.246-6.551 14.246-1.5146351.0185055-2.986429-.5025776-4.152-1.47-1.384-1.16-2.579-2.161-2.613-3.832.0213555-.869813.2621407-1.720129.7-2.472-1.125-1.015-2.3-1.981-3.515-2.909-.2322005 1.0193218-.5274346 2.0232513-.884 3.006-3.18 8.483-5.685 21.454.435 35.08.1646998.3516209.5197437.5745008.908.57h11.453c.4041721-.0055036.7668008-.2496108.924-.622 2.3-5.184 2.048-9.083 1.451-11.422-2.215 1.186-5.431 2.044-10.105 2.044-.5522847 0-1-.4477153-1-1s.4477153-1 1-1c5.666 0 12.379-1.517 13.02-7.1.0275889-.3630914.2562076-.6801454.592-.821.0675409-.0217482.1373121-.0358366.208-.042.0586984-.0179843.1189671-.0303729.18-.037.2672459.0011094.5229286.1091444.71.3.011.011.016.028.027.04.1317748.1194166.2117774.2855205.223.463.0199285.0624468.0333334.1267903.04.192.006.305.288 7.005 13 7.005.5522847 0 1 .4477153 1 1s-.4477153 1-1 1c-4.674 0-7.89-.858-10.1-2.044-.6 2.339-.847 6.238 1.449 11.419.1564714.3720675.5174482.6170301.921.625h11.45c.3885593.004575.7437913-.2188143.908-.571 6.12-13.625 3.615-26.6.435-35.078-1.831-4.888-2.436-11.438-.635-19.137.0647668-.29563666-.0078394-.60469984-.1974702-.84057255s-.475882-.37317517-.7785298-.37342745h-34.907c-.3036158-.00088515-.5908139.13773678-.779.376-.496.624-.047.831.507 4.342zm34.9 19.723c1.7208803 3.715322 2.6820294 7.737053 2.827 11.829 0 3.17-1.97 4.73-5.077 4.73-2.060192-.0884825-4.0906899-.5239273-6.006-1.288-1.1987748-.4412401-1.9833624-1.5970088-1.951-2.874.1542823-4.8628638 1.9991586-9.5197886 5.217-13.169.6765843-.7671025 1.6973817-1.1366278 2.7082205-.9803668s1.8724074.8167728 2.2857795 1.7523668zm-12.3-1.219c-.1714896-.3173621-.1587624-.7024872.033306-1.0078348s.5337042-.483584.8940278-.4664273c.3603236.0171566.6834789.2270468.8456662.5492621 1.4858316 2.869122 1.1023913 6.3500205-.9723351 8.8269272-2.0747263 2.4769068-5.4344559 3.4647822-8.5196649 2.5050728-.3408314-.1071797-.5985929-.3880491-.6761883-.7368076s.036764-.7124213.3-.9540001c.263236-.2415787.6353569-.324372.9761883-.2171923 2.3145852.723585 4.8372196-.0160287 6.3946643-1.8748578s1.8439772-4.4719905.7263357-6.6241422zm-3.546 1.85c-.2457609-.48825-.0539463-1.0833644.430678-1.3362.4846242-.2528355 1.0824653-.069696 1.342322.4112.747006 1.4342692.5569095 3.1772344-.4817134 4.4167539-1.0386228 1.2395196-2.7214204 1.7317151-4.2642866 1.2472461-.3408314-.1071797-.5985929-.3880492-.6761882-.7368076-.0775954-.3487585.036764-.7124212.3-.954s.6353568-.3243721.9761882-.2171924c.7714432.2430238 1.6133214-.0025217 2.1331559-.6221645.5198346-.6196428.6152816-1.4913889.2418441-2.2088355z"/></g></svg>