<svg height="512" viewBox="0 0 60 60" width="512" xmlns="http://www.w3.org/2000/svg"><g id="002---Lower-Back-Massager" fill="none"><g id="Layer_3" transform="translate(1 1)"><path id="Shape" d="m0 39.574c-.00128868-.719841.38550259-1.3844951 1.012-1.739 3.3-1.869 13.8-7.751 17.988-9.426 4.741-1.9 12.178-2.893 17.2 3.827.542013.7316202 1.3898524 1.1739712 2.3 1.2 3.383.094 11.818.523 18.092 2.49.837463.2625538 1.4075641 1.0383449 1.408 1.916v15.672c.0028156.8921993-.5879644 1.6774546-1.446 1.922-5.7138426 1.6195165-11.6156472 2.4815552-17.554 2.564-6.8233121-.1951169-13.6104869-1.0660406-20.262-2.6-1.1726663-.2601166-2.3889495-.2519124-3.558.024l-12.722 2.498c-.59477127.1399208-1.22087513.0002867-1.69983061-.3790975-.47895547-.3793842-.75821435-.9568946-.75816939-1.5679025z" fill="#ffe0b2"/><path id="Shape" d="m56.588 35.925c-6.274-1.967-14.709-2.4-18.092-2.49-.9101476-.0260288-1.757987-.4683798-2.3-1.2-2.691864-3.7752264-7.2466912-5.7576762-11.844-5.155 3.5582988.3517255 6.7877105 2.2336024 8.848 5.156.542013.7316202 1.3898524 1.1739712 2.3 1.2 3.383.094 11.818.523 18.092 2.49.837463.2625538 1.4075641 1.0383449 1.408 1.916v15.672c.0028156.8921993-.5879644 1.6774546-1.446 1.922-5.2370911 1.4776654-10.6305314 2.3309219-16.068 2.542.508.014 1.014.022 1.514.022 5.9383528-.0824448 11.8401574-.9444835 17.554-2.564.8580356-.2445454 1.4488156-1.0298007 1.446-1.922v-15.672c-.0005458-.8791101-.5726019-1.6557613-1.412-1.917z" fill="#dfc49c"/><path id="Shape" d="m20.83 31.989h.01c7.432 1.837 5.66 10.42 16.16 10.42 7.46 0 10.67-2.32 12.02-4.07-3.5261808-.5079991-7.0787673-.8118388-10.64-.91-2.1318116-.0541807-4.1199289-1.0869689-5.39-2.8-1.6090547-2.3334551-4.2863983-3.6980731-7.12-3.629-1.7219179.030896-3.4248051.3660567-5.03.99z" fill="#ef314c"/><path id="Shape" d="m52.35 14.96c-2.8916535.7331297-5.8671645 1.0827942-8.85 1.04-2.613034.0252599-5.2212535-.2295276-7.78-.76-.5528922-.1184714-1.0275189-.4702937-1.3016336-.9648504-.2741148-.4945566-.3209222-1.0835036-.1283664-1.6151496.3251933-.8487762.4880178-1.7510955.48-2.66 0-.11 0-.21-.01-.32.1526723.07279757.3096284.1362479.47.19h.01c2.6751986.8159143 5.4639568 1.1974272 8.26 1.13 2.7960432.0674272 5.5848014-.3140857 8.26-1.13h.01c.5518745-.17867087 1.0742173-.43815732 1.55-.77-.0715813.39915873-.1017413.80464372-.09 1.21.0200746.7086317.1482175 1.4100457.38 2.08.1933883.5070473.1675505 1.0716305-.0713417 1.5588948-.2388922.4872642-.6693873.8534551-1.1886583 1.0111052z" fill="#00bcd4"/><path id="Shape" d="m53.61 12.39c-.2317825-.6699543-.3599254-1.3713683-.38-2.08-.0117413-.40535628.0184187-.81084127.09-1.21-.4757827.33184268-.9981255.59132913-1.55.77h-.01c-.5012428.1761116-1.0120614.3236815-1.53.442.0199965.7079879.1481444 1.4087544.38 2.078.1933883.5070473.1675505 1.0716305-.0713417 1.5588948-.2388922.4872642-.6693873.8534551-1.1886583 1.0111052-2.3657759.6118744-4.7940491.9497591-7.237 1.007.459.014.914.033 1.387.033 2.9828355.0427942 5.9583465-.3068703 8.85-1.04.519271-.1576501.9497661-.523841 1.1886583-1.0111052.2388922-.4872643.26473-1.0518475.0713417-1.5588948z" fill="#00838f"/><path id="Shape" d="m53.32 9.1c-.4757827.33184268-.9981255.59132913-1.55.77h-.01c-2.6751986.8159143-5.4639568 1.1974272-8.26 1.13-2.7960432.0674272-5.5848014-.3140857-8.26-1.13h-.01c-.1603716-.0537521-.3173277-.11720243-.47-.19 0 0 .15-2.68-.95-2.68h-15.31c-1.9329966 0-3.5-1.56700338-3.5-3.5s1.5670034-3.5 3.5-3.5h28.01c2.2374704-.00174466 4.3446301 1.05219873 5.6852222 2.84359198 1.3405921 1.79139324 1.7574775 4.11025612 1.1247778 6.25640802z" fill="#02a9f4"/><path id="Shape" d="m46.51 0h-3c2.2374704-.00174466 4.3446301 1.05219873 5.6852222 2.84359198 1.3405921 1.79139324 1.7574775 4.11025612 1.1247778 6.25640802-.4757827.33184268-.9981255.59132913-1.55.77h-.01c-2.1891589.6879529-4.4656668 1.0583906-6.76 1.1.491.02.989.033 1.5.033 2.7960432.0674272 5.5848014-.3140857 8.26-1.13h.01c.5518745-.17867087 1.0742173-.43815732 1.55-.77.6338462-2.14655018.2175115-4.46633984-1.1232205-6.2585107-1.340732-1.79217085-3.4486029-2.84651384-5.6867795-2.8444893z" fill="#0377bc"/></g><g id="Layer_2" fill="#000"><path id="Shape" d="m57.887 35.971c-6.405-2.008-14.976-2.442-18.364-2.535-.6036275-.0184643-1.1652391-.3134671-1.523-.8-5.973-7.995-14.837-5.57-18.372-4.158-4.255 1.7-14.936 7.69-18.109 9.484-.93984297.533511-1.5200971 1.5312884-1.519 2.612v16.4c.00082951.9093379.41406373 1.7692216 1.12356835 2.3379916s1.63869419.7850321 2.52643165.5880084l12.759-2.5c1.0222461-.2432049 2.0864176-.250728 3.112-.022 3.542.79 12.629 2.622 20.479 2.622 6.0304708-.0873906 12.0237489-.9614383 17.828-2.6 1.285489-.3715742 2.1707801-1.5478865 2.172-2.886v-15.672c.0022501-1.3170742-.8548082-2.4815864-2.113-2.871zm.113 18.543c.0048926.4457378-.2898824.8393178-.719.96-5.6260674 1.5894824-11.4353643 2.4386395-17.281 2.526-7.651 0-16.567-1.8-20.045-2.572-2.516-.56-3.145-.142-16.726 2.52-.29730027.0699404-.61026296.0001843-.84971938-.1893935-.23945641-.1895778-.37915039-.4781902-.37928062-.7836065v-16.4c-.00106497-.3583279.18967669-.6898369.5-.869 3.145-1.779 13.727-7.711 17.868-9.368 3.105-1.241 10.881-3.387 16.026 3.5.7228683.9770212 1.8550816 1.5670999 3.07 1.6 3.3.091 11.656.512 17.821 2.444.422576.130293.7108893.5207934.711.963z"/><path id="Shape" d="m50.169 38.351c-3.568799-.5153145-7.1645252-.8228327-10.769-.921-1.8249303-.0458767-3.5265153-.9315423-4.611-2.4-3.3-4.417-8.2-4.881-13.233-3-.441057.1258721-.7399368.535656-.7250421.9940808.0148946.4584247.3397445.8479431.7880421.9449192 6.843 1.705 5.347 10.44 16.381 10.44 7.746 0 11.243-2.425 12.812-4.459.2161414-.2806251.2677015-.6546529.1355475-.9832908-.1321539-.328638-.4283007-.5628437-.7785475-.6157092zm-12.169 4.058c-8.655 0-8.065-6.087-13.12-9.229 3.837-.673 6.41.5 8.31 3.049 1.4500472 1.9605125 3.7242089 3.1415117 6.162 3.2 1.764.05 4.978.2 8.476.621-1.646 1.177-4.601 2.359-9.828 2.359z"/><path id="Shape" d="m2.393 19.173c-.386 3.167-.527 6.015.757 9.02.13841425.3315362.44403859.5633423.80061625.6072413.35657766.0438989.70929995-.1068567.92399446-.394921s.25836106-.6691594.11438929-.9983203c-.83939698-2.2081189-1.09194719-4.5961482-.733-6.931 2.62378945 1.3635771 5.70471504 1.5429248 8.469.493 1.9009738-.787849 3.1524409-2.62949 3.185-4.687-.037-4.682-6.454-6.933-10.01-4.699-1.64341444 1.1510529-2.75029665 2.9188896-3.068 4.9-1.00518234-2.1570779-.99491472-4.6502743.028-6.799 2.091-3.884 8.059-3.732 12.414-3.691.6292668 1.79648388 2.3225036 3.00130238 4.226 3.007h15.1c.1386807.5619436.1972598 1.1406645.174 1.719.0432573.8797154-.0988118 1.7587042-.417 2.58-.2955886.8029798-.2294901 1.6945547.1812768 2.4451676.410767.7506129 1.1260648 1.2869185 1.9617232 1.4708324 5.6595043 1.1413548 11.4990957 1.0431015 17.117-.288.7847798-.2335878 1.4380268-.7813107 1.8048894-1.5133315.3668627-.7320207.4146777-1.5831645.1321106-2.3516685-.3166637-.8913512-.4040106-1.8480409-.254-2.782.6887702-2.43864888.1940349-5.05916288-1.3364358-7.07883415s-3.919516-3.20471103-6.4535642-3.20116585h-28.01c-2.2814141.00675592-4.1949137 1.7236572-4.448 3.991-5.242-.049-11.43.058-13.952 4.746-1.617 3.007-1.411 7.882 1.293 10.436zm4.569-5.9c2.345-1.471 6.925.049 6.948 3.025-.0359957 1.251936-.8113936 2.3631826-1.974 2.829-2.46406735.893997-5.20355911.5932625-7.415-.814.294-1.994.86-4.045 2.441-5.036zm46.653 1.285c-.1094423.2158266-.3047494.3755573-.538.44-5.2988669 1.2392902-10.8018287 1.3282897-16.138.261-.2845188-.0637947-.5270223-.2485941-.664-.506-.356-.665.189-.776.425-2.692 4.545 1.317 12.327 1.27 16.574-.318.161 1.973.7 2.133.341 2.819zm-34.115-12.558h28.01c1.8607328-.00260482 3.6206267.84532446 4.7781885 2.30216496 1.1575617 1.4568405 1.5858464 3.36282649 1.1628115 5.17483504-.3282496.18293488-.6731314.33428107-1.03.452-3.912 1.406-11.623 1.429-15.657.065-.056-1.435-.515-2.994-1.954-2.994h-15.31c-1.3807119 0-2.5-1.11928813-2.5-2.5s1.1192881-2.5 2.5-2.5z"/><path id="Shape" d="m54.25 22.105c-3.331 6.519-15.169 6.519-18.5 0-.2512896-.4918096-.8536904-.6867896-1.3455-.4355s-.6867896.8536904-.4355 1.3455c4.069 7.965 17.99 7.97 22.062 0 .1625559-.318145.1430353-.6988456-.0512084-.9986957-.1942437-.29985-.5337004-.473295-.8905-.455-.3567996.0182951-.6767358.2255507-.8392916.5436957z"/><path id="Shape" d="m51.43 21.584c.2586664-.2522238.3611734-.6243576.2681463-.973458-.093027-.3491005-.3671216-.6208787-.7169989-.7109399-.3498774-.0900611-.7211278.0156003-.9711474.2763979-2.408 2.427-7.607 2.433-10.02 0-.3907136-.3809821-1.0147219-.3783717-1.4022343.005866s-.3954183 1.0082013-.0177657 1.402134c3.196 3.224 9.662 3.225 12.86 0z"/></g></g></svg>