<svg height="512" viewBox="0 0 55 60" width="512" xmlns="http://www.w3.org/2000/svg"><g id="001---Lower-Back-Massager" fill="none" fill-rule="evenodd"><g id="Layer_3" transform="translate(1 1)"><g fill-rule="nonzero"><path id="Shape" d="m43 46c-5.33 0-8.63-1.16-10.67-2.59" fill="#ffe0b2"/><path id="Shape" d="m25.67 43.41c-2.04 1.43-5.34 2.59-10.67 2.59" fill="#ffe0b2"/><path id="Shape" d="m20.42 15.29c-.9193784.852421-1.7781322 1.7679796-2.57 2.74-.8208633.9483588-1.5727849 1.9542629-2.25 3.01-1.7196601-1.5800275-3.5293546-3.059169-5.42-4.43-3-2.24-6.1-4.37-8.9-6.84-1.58806912-1.59260594-1.71335763-4.12861829-.29-5.87.70821226-.82099425 1.69462155-1.35158986 2.77-1.49 1.08032176-.16030691 2.18021813.11286997 3.06.76 1.22.96 2.38 1.99 3.52 3.04v.01c3.33 3.05 6.45 6.36 10.08 9.07z" fill="#00bcd4"/><path id="Shape" d="m26.28 25.09c-2.6 3.11-6.8 3.87-9.39 1.7-2.04-1.71-3.19-2.67-1.29-5.75.6772151-1.0557371 1.4291367-2.0616412 2.25-3.01.7918678-.9720204 1.6506216-1.887579 2.57-2.74 2.7-2.41 3.85-1.45 5.89.26 2.58 2.16 2.57 6.44-.03 9.54z" fill="#02a9f4"/><path id="Shape" d="m26.31 15.55c-1.682-1.41-2.761-2.305-4.6-1.226.5614731.3705709 1.096131.7802525 1.6 1.226 2.58 2.16 2.57 6.44-.03 9.54-1.1117662 1.3580727-2.6321002 2.3211262-4.335 2.746 2.7683688.5554455 5.6119925-.5091204 7.335-2.746 2.6-3.1 2.61-7.38.03-9.54z" fill="#0377bc"/></g><path id="Shape" d="m27.656 29.857c1.15708.3630645 2.4189456-.0062045 3.1977505-.9357812.7788049-.9295766.9213577-2.2366126.3612495-3.3122188" stroke="#000" stroke-linecap="round" stroke-linejoin="round" stroke-width="2"/><path id="Shape" d="m26.455 33.675c2.7010298.8497676 5.6479799-.0113939 7.4664357-2.1818513s2.1502207-5.2226772.8405643-7.7331487" stroke="#000" stroke-linecap="round" stroke-linejoin="round" stroke-width="2"/><path id="Shape" d="m48.54 56.84c-.3268948.7099421-1.0384208 1.1634421-1.82 1.16h-11.45c-.8007342-.0066634-1.5221771-.4850114-1.84-1.22-2.88-6.53-1.93-11.17-1.1-13.37-1.891801-1.1864788-3.1228955-3.1865453-3.33-5.41-.2071045 2.2234547-1.438199 4.2235212-3.33 5.41.83 2.2 1.78 6.84-1.1 13.37-.3178229.7349886-1.0392658 1.2133366-1.84 1.22h-11.45c-.7815792.0034421-1.49310517-.4500579-1.82-1.16-6.55-14.56-3.38-28.05-.46-35.84.52841735-1.4236389.92344772-2.8932858 1.18-4.39 1.8906454 1.370831 3.7003399 2.8499725 5.42 4.43-1.9 3.08-.75 4.04 1.29 5.75 2.59 2.17 6.79 1.41 9.39-1.7s2.61-7.38.03-9.54c-2.04-1.71-3.19-2.67-5.89-.26-3.63-2.71-6.75-6.02-10.08-9.07v-.01c-.19-1.27-.45-2.51-.74-3.75-.14075598-.59557119-.00109189-1.22280641.37906429-1.70238806.38015621-.47958165.95895851-.75871947 1.57093571-.75761194h34.9c.6075675.00030369 1.1820553.27677042 1.5613624.75139068.3793072.47462027.5223025 1.09592727.3886376 1.68860932-.4767998 1.91424341-.7978484 3.86394489-.96 5.83-.39203 4.3060005.1398253 8.6460764 1.56 12.73 2.92 7.79 6.09 21.28-.46 35.84z" fill="#ffe0b2" fill-rule="nonzero"/><path id="Shape" d="m27.5 41.693c-.8703685-1.0459633-1.3944973-2.3363682-1.5-3.693-.2071045 2.2234547-1.438199 4.2235212-3.33 5.41.83 2.2 1.78 6.84-1.1 13.37-.3178229.7349886-1.0392658 1.2133366-1.84 1.22h3c.8007342-.0066634 1.5221771-.4850114 1.84-1.22 2.88-6.53 1.93-11.17 1.1-13.37.6904234-.4800833 1.3069439-1.0585345 1.83-1.717z" fill="#dfc49c" fill-rule="nonzero"/><path id="Shape" d="m49 21c-1.4201747-4.0839236-1.95203-8.4239995-1.56-12.73.1621516-1.96605511.4832002-3.91575659.96-5.83.1336649-.59268205-.0093304-1.21398905-.3886376-1.68860932-.3793071-.47462026-.9537949-.75108699-1.5613624-.75139068h-3c.6075675.00030369 1.1820553.27677042 1.5613624.75139068.3793072.47462027.5223025 1.09592727.3886376 1.68860932-.4767998 1.91424341-.7978484 3.86394489-.96 5.83-.39203 4.3060005.1398253 8.6460764 1.56 12.73 2.92 7.79 6.09 21.28-.46 35.84-.3268948.7099421-1.0384208 1.1634421-1.82 1.16h3c.7815792.0034421 1.4931052-.4500579 1.82-1.16 6.55-14.56 3.38-28.05.46-35.84z" fill="#dfc49c" fill-rule="nonzero"/><path id="Shape" d="m41.936 25.331c.4509912-.5094687 1.130059-.7547074 1.8025078-.6509582.6724489.1037493 1.246025.5422531 1.5224922 1.1639582 1.6590905 3.5902437 2.590032 7.4737551 2.739 11.426 0 5.523-6.847 3.576-9.737 2.508-.798179-.2918933-1.3212383-1.0603881-1.3-1.91.1568189-4.6285874 1.9143921-9.0594533 4.973-12.537z" fill="#ef314c" fill-rule="nonzero"/><path id="Shape" d="m45.261 25.844c-.2764672-.6217051-.8500433-1.0602089-1.5224922-1.1639582-.6724488-.1037492-1.3515166.1414895-1.8025078.6509582l-.006.008c.1361714.1499043.2478743.3203271.331.505 1.6590905 3.5902437 2.590032 7.4737551 2.739 11.426 0 2.262-1.156 3.259-2.711 3.589 2.819.429 5.711 0 5.711-3.589-.148968-3.9522449-1.0799095-7.8357563-2.739-11.426z" fill="#bb193b" fill-rule="nonzero"/></g><g id="Layer_2" fill="#000" fill-rule="nonzero" transform="translate(-1)"><path id="Shape" d="m11.067 18.021c-.2357725 1.2341305-.5701787 2.4473559-1 3.628-3.313 8.841-5.919 22.368.485 36.6.4869965 1.0683743 1.5538686 1.7531591 2.728 1.751h11.45c1.1971732-.0064904 2.2776467-.7190931 2.755-1.817 2.736-6.207 2.158-10.83 1.371-13.382.8636045-.6891266 1.5907625-1.5336337 2.144-2.49.5532375.9563663 1.2803955 1.8008734 2.144 2.49-.787 2.552-1.365 7.175 1.371 13.382.4773533 1.0979069 1.5578268 1.8105096 2.755 1.817h11.45c1.1753456.0039098 2.2441097-.6806939 2.732-1.75 6.4-14.233 3.8-27.76.485-36.6-1.712-4.569-2.259-10.722-.562-17.98.2039475-.89013187-.0086449-1.82469256-.5775706-2.53901247-.5689256-.7143199-1.4322322-1.13061423-2.3454294-1.13098753h-34.907c-.9158978.00100103-1.7811645.42034094-2.3494408 1.13862496-.5682762.71828403-.7773005 1.65681549-.5675592 2.54837504.069.291.13.567.19.838-.458-.39-.919-.779-1.392-1.154-1.09041904-.80857199-2.45686924-1.1519825-3.8-.955-2.02667484.26602212-3.7218127 1.66948764-4.36135391 3.61092157-.63954121 1.94143394-.11042053 4.07760793 1.36135391 5.49607843 2.649 2.344 5.556 4.369 8.441 6.498zm1.509-14.791c-.0701385-.29676235-.0010382-.60931017.1876687-.84884518.1887068-.239535.4763958-.37987757.7813313-.38115482h34.907c.3026478.00025228.588899.13755474.7785298.37342745s.262237.54493589.1974702.84057255c-1.806 7.719-1.189 14.267.635 19.137 3.183 8.489 5.69 21.466-.435 35.078-.1642087.3521857-.5194407.575575-.908.571h-11.45c-.4046932-.0064845-.767431-.2511855-.925-.624-2.292-5.2-2.042-9.093-1.448-11.426 2.215 1.188 5.425 2.05 10.103 2.05.5522847 0 1-.4477153 1-1s-.4477153-1-1-1c-12.733 0-12.995-6.722-13-7v-.016c-.0024853-.5522847-.4522153-.9979853-1.0045-.9955s-.9979853.4522153-.9955 1.0045c-.006.307-.288 7.007-13 7.007-.5522847 0-1 .4477153-1 1s.4477153 1 1 1c4.678 0 7.888-.862 10.1-2.05.594 2.333.844 6.228-1.448 11.427-.157639.3712717-.5187224.6152576-.922.623h-11.45c-.3882563.0045008-.7433002-.2183791-.908-.57-6.125-13.613-3.618-26.59-.435-35.08.3565654-.9827487.6517995-1.9866782.884-3.006 1.21.928 2.39 1.894 3.515 2.909-1.559 3-.373 4.391 1.91 6.3 4.827 4.044 12.976-.765 12.994-7.585.0583484-1.9873082-.7834916-3.8947683-2.291-5.191-2.239-1.877-3.832-2.861-6.541-.776-3.249-2.526-6-5.379-9.135-8.287-.164-1.036-.385-2.152-.697-3.484zm12.453 12.625c.831-.134 1.756.722 2.636 1.459 1.977 1.657 2.272 5.246-.15 8.137s-6.015 3.223-7.985 1.572c-1.237-1.036-1.883-1.61-1.9-2.338-.02-.967.928-2.56 2.984-5.014s3.46-3.666 4.415-3.816zm-21.277-10.312c1.12045591-1.29185437 3.02781664-1.54656936 4.448-.594 4.345 3.449 8.077 7.757 12.7 11.414-1.2595167 1.3067846-2.4263484 2.6998319-3.492 4.169-4.485-3.98-9.253-6.787-13.453-10.5-1.20366761-1.22512025-1.29117687-3.16023876-.203-4.489z"/><path id="Shape" d="m15.375 16.585c.2729692.236984.6525862.3082007.9928887.1862673.3403026-.1219334.5883072-.4180323.6486564-.7744472.0603492-.3564148-.0763532-.7176535-.3575451-.9448201l-1.533-1.285c-.2729692-.236984-.6525862-.3082007-.9928887-.1862673-.3403026.1219334-.5883072.4180323-.6486564.7744472-.0603492.3564148.0763532.7176535.3575451.9448201z"/><path id="Shape" d="m29.956 29.9c-.5268797-.1656854-1.0883146.1271203-1.254.654s.1271203 1.0883146.654 1.254c1.5417827.482242 3.2222992-.0102543 4.2598963-1.2484156s1.2285746-2.9789128.4841037-4.4125844c-.2598567-.480896-.8576978-.6640355-1.342322-.4112-.4846243.2528356-.6764389.84795-.430678 1.3362.3703257.7164636.2740808 1.5852505-.2440818 2.2032866-.5181625.6180362-1.3568363.8643695-2.1269182.6247134z"/><path id="Shape" d="m28.755 33.721c-.3408314-.1071797-.7129522-.0243864-.9761883.2171924-.263236.2415787-.3775953.6052415-.3.954.0775954.3487585.3353569.6296279.6761883.7368076 3.0861399.9698739 6.4526522-.0143346 8.5303486-2.4938693 2.0776965-2.4795347 2.457608-5.9663296.9626514-8.8351307-.1621873-.3222153-.4853426-.5321055-.8456662-.5492621-.3603236-.0171567-.7019594.1610797-.8940278.4664273s-.2047956.6904727-.033306 1.0078348c1.1111171 2.151858.8218692 4.7604104-.7336754 6.6165771-1.5555446 1.8561668-4.0733211 2.5971198-6.3863246 1.8794229z"/><path id="Shape" d="m39.917 41.716c2.756 1.018 6.91 2.094 9.331.406 1.2062143-.8983632 1.8675743-2.3524494 1.752-3.852-.1437134-4.091672-1.1034997-8.1133908-2.823-11.829-.4141988-.9350087-1.2761586-1.5946215-2.2869209-1.7500611-1.0107624-.1554397-2.0310833.2147074-2.7070791.9820611-3.2178414 3.6492114-5.0627177 8.3061362-5.217 13.169-.0323624 1.2769912.7522252 2.4327599 1.951 2.874zm4.772-14.727c.2259294-.2520694.5640414-.372732.8985125-.3206539.3344711.0520782.6198914.2698268.7584875.5786539 1.6078217 3.4616564 2.5100406 7.2088905 2.654 11.023.0968111.8422735-.242474 1.6757837-.9 2.211-1.249.87-4.051.632-7.494-.641-.395607-.1444041-.6550924-.5249827-.645-.946.142686-4.3975989 1.8147139-8.6077285 4.728-11.905z"/></g></g></svg>