<svg height="479pt" viewBox="-39 1 479 479.99991" width="479pt" xmlns="http://www.w3.org/2000/svg"><path d="m264.507812 312c-13.253906 0-24-10.746094-24-24h-16c0 22.089844 17.910157 40 40 40 22.09375 0 40-17.910156 40-40h-16c0 13.253906-10.746093 24-24 24zm0 0"/><path d="m136.507812 312c-13.253906 0-24-10.746094-24-24h-16c0 22.089844 17.910157 40 40 40 22.09375 0 40-17.910156 40-40h-16c0 13.253906-10.746093 24-24 24zm0 0"/><path d="m120.507812 0h-96c-4.417968 0-8 3.582031-8 8v22.703125c.101563 15.578125-2.359374 31.066406-7.28125 45.847656-5.777343 16.984375-8.722656 34.804688-8.71875 52.746094v157.34375c-.390624 17.410156 12.925782 32.078125 30.296876 33.359375.574218 0 1.152343.039062 1.71875.039062 5.648437-.011718 11.1875-1.539062 16.046874-4.414062.492188 73.1875 48.347657 137.617188 118.273438 159.230469 21.917969 6.859375 45.410156 6.859375 67.328125 0 69.9375-21.617188 117.800781-86.070313 118.273437-159.269531 4.863282 2.878906 10.410157 4.402343 16.0625 4.414062.570313 0 1.144532 0 1.71875-.039062 17.347657-1.289063 30.652344-15.929688 30.28125-33.320313v-157.34375c.003907-17.9375-2.941406-35.753906-8.71875-52.738281-4.921874-14.78125-7.382812-30.273438-7.28125-45.855469v-22.703125c0-4.417969-3.582031-8-8-8h-96c-4.417968 0-8 3.582031-8 8v43.054688l-4.511718 2.257812c-14.578125-23.21875-40.070313-37.316406-67.488282-37.316406-27.417968 0-52.910156 14.097656-67.488281 37.316406l-4.511719-2.257812v-43.054688c0-4.417969-3.582031-8-8-8zm-24 182.625c-7.171874 6.070312-13.792968 12.761719-19.785156 20l-12.214844 14.976562v-34.5625c.007813-2.375.953126-4.652343 2.625-6.34375l14.0625-14.0625c2.566407-2.566406 6.421876-3.335937 9.773438-1.949218 3.351562 1.386718 5.539062 4.65625 5.539062 8.285156zm240 131.269531c.210938 66.832031-43.261718 125.960938-107.113281 145.699219-18.8125 5.847656-38.960937 5.847656-57.773437 0-63.851563-19.738281-107.320313-78.867188-107.113282-145.699219v-71.039062l24.601563-30.054688c2.320313-2.847656 4.855469-5.511719 7.398437-8.175781v11.375c0 17.671875 14.328126 32 32 32 17.671876 0 32-14.328125 32-32v-49.601562c0-.222657.046876-.429688.046876-.65625 26.109374-7.492188 53.796874-7.492188 79.90625 0 0 .21875.046874.433593.046874.648437v49.609375c0 17.671875 14.328126 32 32 32 17.671876 0 32-14.328125 32-32v-11.382812c2.542969 2.664062 5.082032 5.328124 7.402344 8.175781l24.597656 30.0625zm-169.34375-169.453125c6.09375-9.132812 9.347657-19.863281 9.34375-30.839844v-4.160156c-.039062-3.730468-.453124-7.449218-1.230468-11.097656 16.679687-3.09375 33.785156-3.09375 50.464844 0-.78125 3.648438-1.195313 7.367188-1.234376 11.097656v4.160156c-.007812 10.984376 3.246094 21.726563 9.34375 30.863282.742188 1.164062 1.421876 2.371094 2.039063 3.605468-23.296875-5.25-47.46875-5.25-70.765625 0 .613281-1.246093 1.296875-2.457031 2.039062-3.628906zm169.34375 73.160156-12.214843-14.929687c-5.996094-7.25-12.613281-13.957031-19.785157-20.046875v-13.65625c0-3.628906 2.183594-6.902344 5.535157-8.292969 3.351562-1.386719 7.210937-.617187 9.777343 1.949219l14.0625 14.0625c1.675782 1.6875 2.617188 3.96875 2.625 6.34375zm-52.421874-154.402343c2.722656-1.359375 4.4375-4.152344 4.421874-7.199219v-40h80v14.703125c-.101562 17.335937 2.648438 34.566406 8.136719 51.007813 5.210938 15.324218 7.867188 31.398437 7.863281 47.585937v157.34375c.269532 8.851563-6.324218 16.414063-15.128906 17.359375-4.390625.238281-8.6875-1.339844-11.878906-4.367188-3.195312-3.027343-5-7.234374-4.992188-11.632812v-104.96875c-.015624-6.617188-2.644531-12.960938-7.3125-17.65625l-14.0625-14.0625c-7.140624-7.140625-17.882812-9.277344-27.210937-5.414062-9.332031 3.867187-15.414063 12.96875-15.414063 23.070312v47.03125c0 8.835938-7.164062 16-16 16-8.835937 0-16-7.164062-16-16v-49.601562c.007813-10.984376-3.242187-21.726563-9.34375-30.863282-4.335937-6.492187-6.652343-14.125-6.65625-21.933594v-4.160156c-.050781-15.027344 8.449219-28.777344 21.914063-35.449218zm-83.578126-31.199219c21.429688-.054688 41.445313 10.6875 53.242188 28.574219-9.582031 5.144531-17.429688 13.003906-22.5625 22.59375-20.246094-4.121094-41.113281-4.121094-61.359375 0-5.128906-9.589844-12.980469-17.449219-22.558594-22.59375 11.796875-17.886719 31.808594-28.628907 53.238281-28.574219zm-61.910156 41.992188c13.460938 6.671874 21.960938 20.421874 21.910156 35.449218v4.160156c.003907 7.824219-2.3125 15.472657-6.65625 21.984376-6.089843 9.121093-9.339843 19.84375-9.34375 30.8125v49.601562c0 8.835938-7.164062 16-16 16-8.835937 0-16-7.164062-16-16v-47.03125c0-10.101562-6.082031-19.203125-15.414062-23.070312-9.328125-3.863282-20.070312-1.726563-27.210938 5.414062l-14.0625 14.0625c-4.667968 4.695312-7.292968 11.039062-7.3125 17.65625v104.96875c.007813 4.398438-1.796874 8.605469-4.988281 11.632812-3.195312 3.027344-7.492187 4.605469-11.882812 4.367188-8.804688-.945312-15.394531-8.507812-15.128907-17.359375v-157.34375c-.003906-16.1875 2.652344-32.265625 7.863282-47.59375 5.492187-16.4375 8.238281-33.667969 8.136718-51v-14.703125h80v40c0 3.03125 1.710938 5.804688 4.425782 7.160156zm0 0"/></svg>