<svg height="512" viewBox="0 0 60 57" width="512" xmlns="http://www.w3.org/2000/svg"><g id="024---Massage"><path id="Shape" d="m25.707 42.293c-.3904999-.3903819-1.0235001-.3903819-1.414 0-.094.095-9.582 9.356-21.769 1.855-.46665819-.2539327-1.05041987-.0986357-1.32921517.3536085-.27879529.4522443-.15529185 1.0435494.28121517 1.3463915 3.19461071 2.0630416 6.90645239 3.1829371 10.709 3.231 5.0064558-.1111018 9.8059307-2.0192498 13.522-5.376.3877236-.3900375.3877236-1.0199625 0-1.41z"/><path id="Shape" d="m21.553 52.945c-.114.057-11.441 5.592-18.846-1.812-.39237889-.3789722-1.01608478-.3735524-1.40181858.0121814-.38573379.3857338-.39115363 1.0094397-.01218142 1.4018186 2.96600806 2.9371469 7.00329036 4.5349368 11.176 4.423 3.4442241-.0525155 6.8407458-.8136522 9.978-2.236.3224865-.158024.5354742-.4768371.5580026-.8352525.0225283-.3584153-.1488625-.7013887-.4490237-.8985495-.3001611-.1971608-.6829949-.2182297-1.0029789-.055198z"/><path id="Shape" d="m58.524 45.852c.436507-.3028421.5600105-.8941472.2812152-1.3463915-.2787953-.4522442-.862557-.6075412-1.3292152-.3536085-6.8063286 4.5151908-15.8262289 3.7461998-21.77-1.856-.3926454-.3787042-1.0163551-.3728476-1.40182.0131628-.3854648.3860105-.3904391 1.0097279-.01118 1.4018372 3.7157816 3.3572127 8.5154358 5.265432 13.522 5.376 3.8029414-.0492567 7.5148136-1.1705478 10.709-3.235z"/><path id="Shape" d="m37.553 54.734c3.1371995 1.4225113 6.5337556 2.1836557 9.978 2.236 4.1727096.1119368 8.2099919-1.4858531 11.176-4.423.3789722-.3923789.3735524-1.0160848-.0121814-1.4018186s-1.0094397-.3911536-1.4018186-.0121814c-7.386 7.385-18.732 1.867-18.847 1.812-.4916351-.2317207-1.0783335-.0283423-1.3210709.4579479-.2427373.4862902-.0526276 1.0774213.4280709 1.3310521z"/><path id="Shape" d="m28 0h-12c-.4884978.00014341-.9053979.35319779-.986.835l-.714 4.265c-.1486631.89389178-.5964382 1.71081704-1.27 2.317-5.473 4.9-5.636 5.229-5.741 5.44l-6.802 12.684c-.61651738 1.0945435-.62825649 2.4288776-.03109202 3.5340987.59716446 1.1052211 1.71968491 1.8267009 2.97309202 1.9109013l-.995 1.852c-.65932065 1.1215944-.67083482 2.5095784-.03021224 3.6419566.64062259 1.1323783 1.8362437 1.8374472 3.13721224 1.8500434-.32844036 1.0858513-.12915906 2.2628618.53842296 3.1800751.66758203.9172133 1.72633984 1.4686649 2.86057704 1.4899249 1.2975858.0129843 2.4974987-.687605 3.124-1.824l.117-.185c.6468337 1.1197203 1.8508036 1.7997498 3.1437019 1.775634 1.2928982-.0241158 2.470671-.7485708 3.0752981-1.891634l5.37-9.935.05 3.793c.0069121 1.4628967.9036871 2.7742345 2.2644589 3.3112769 1.3607718.5370425 2.9114114.1916018 3.9155411-.8722769 1.0065417 1.0586698 2.5547681 1.4007443 3.9136541.8647063 1.3588861-.536038 2.2566305-1.8429715 2.2693459-3.3037063l.05-3.793 5.367 9.939c.6069815 1.1407024 1.7849687 1.8623801 3.0769113 1.8850275 1.2919426.0226475 2.4944999-.6572999 3.1410887-1.7760275l.076.12c.4744097.8946638 1.3076639 1.5447064 2.2908732 1.7871677s2.0231531.054353 2.8591268-.5171677c1.28068-.9139774 1.8467225-2.5355911 1.413-4.048 1.2996333-.011858 2.4945741-.7150185 3.1360227-1.8453861s.632295-2.5168144-.0240227-3.6386139l-1-1.86c1.2540107-.0847025 2.3767824-.8071037 2.9735952-1.9132374s.5841279-2.4411689-.0335952-3.5357626l-6.784-12.654c-.119-.237-.282-.563-5.755-5.466-.6735618-.60618296-1.1213369-1.42310822-1.27-2.317l-.714-4.265c-.0806021-.48180221-.4975022-.83485659-.986-.835h-12c-.5522847 0-1 .44771525-1 1 0 2.755-.145 18.266-.547 19.922-.148.492-.3 1.014-.453 1.531-.146-.5-.3-1.008-.439-1.48-.428-1.752-.561-16.88-.561-19.973 0-.55228475-.4477153-1-1-1zm3.108 26.093c.041-.387.686-2.686 1.273-4.646.485-1.983.619-17.029.619-19.447h10.153l.571 3.428c.2250491 1.34298372.899129 2.56986554 1.912 3.48 3.628 3.25 5.15 4.7 5.313 4.9l6.8 12.676c.4619641.8275174.1748761 1.8726065-.645 2.348-.7132712.3585001-1.5822597.1112729-2-.569l-4.346-8.147c-.1682721-.3152869-.4919655-.5168519-.849148-.5287674-.3571825-.0119156-.6935896.1676286-.8825.471-.1889104.3033713-.2016241.6844805-.033352.9997674 6.139 11.506 2.873 5.4 6.824 12.748.4527199.7590342.256921 1.7375967-.453 2.264-.3688994.2371496-.819448.311184-1.2448377.2045525-.4253898-.1066315-.787744-.3844346-1.0011623-.7675525-.574-1.085 2.137 4.143-6.1-11.4-.1630135-.3232819-.4880364-.5332019-.8497552-.5488248s-.7036308.1654918-.8939108.4735147c-.1902799.3080229-.199205.694839-.023334 1.0113101 3.26 6.154 6.115 11.556 7.122 13.421.4445611.7603759.2523759 1.7328843-.448 2.267-.3790382.255299-.8501854.3336166-1.2914332.2146715-.4412478-.118945-.8091983-.4234542-1.0085668-.8346715-2.678-4.221-.848-.969-7.789-14.07-.2587454-.4879435-.8640564-.6737453-1.352-.4149999-.4879435.2587454-.6737454.8640563-.415 1.3519999 5.064 9.558 5.959 11.27 6.084 11.444.3271416.7254138.1165827 1.5804483-.51 2.071-.3714783.2498735-.8311735.3313324-1.2658929.2243187-.4347195-.1070138-.8040708-.3925568-1.0171071-.7863187l-7.2-13.331c-.2164157-.4011024-.6766626-.6051305-1.1192016-.4961435-.4425389.108987-.7554005.5034136-.7607984.9591435l-.1 7.639c-.0044746.428803-.1780571.8385007-.483 1.14-.4623885.4473075-1.1486577.5721238-1.7389345.3162715s-.9683766-.8420135-.9580655-1.4852715zm-2.108 8.58c.0131981.6452799-.3647453 1.2345978-.9567091 1.4917731-.5919638.2571754-1.2806426.1312456-1.7432909-.3187731-.304792-.301192-.4783709-.7105221-.483-1.139l-.1-7.64c-.0053979-.4557299-.3182595-.8501565-.7607984-.9591435-.442539-.108987-.9027859.0950411-1.1192016.4961435l-7.2 13.317c-.2122171.3953892-.5819047.6824535-1.0175376.7901231-.4356329.1076695-.8964855.0258787-1.2684624-.2251231-.6259064-.4910291-.8359815-1.3457749-.509-2.071.125-.174 1.02-1.886 6.084-11.444.1673789-.3156442.1536493-.696607-.0360171-.9993835s-.5264547-.4813676-.8835-.4685c-.3570453.0128677-.680104.2152393-.8474829.5308835-6.911 13.045-5.206 10-7.828 14.138-.2130222.3870715-.57855962.6671096-1.00773881.7720286-.42917919.1049189-.88268687.0251078-1.25026119-.2200286-.70037595-.5341157-.89256112-1.5066241-.448-2.267 1.012-1.875 4.257-8.013 7.122-13.421.175871-.3164711.1669459-.7032872-.023334-1.0113101-.19028-.3080229-.532192-.4891376-.8939108-.4735147s-.6867417.2255429-.8497552.5488248c-8.18 15.449-5.52 10.318-6.094 11.4-.21394107.3816952-.57555359.6585072-.9998629.7653885s-.87390489.0344084-1.2431371-.2003885c-.7135396-.5286541-.90912795-1.5126538-.452-2.274 3.86-7.182.825-1.5 6.82-12.74.2601261-.4873913.0758913-1.0933739-.4115-1.3535s-1.09337388-.0758913-1.3535.4115l-4.346 8.149c-.4219929.6746389-1.28607874.9204713-2 .569-.81838269-.4749644-1.10604805-1.5175846-.647-2.345l6.77-12.625c.279-.33 1.815-1.789 5.343-4.949 1.012871-.91013446 1.6869509-2.13701628 1.912-3.48l.569-3.428h10.153c0 2.313.134 17.466.632 19.5.574 1.908 1.219 4.208 1.258 4.555l.11 8.62z"/></g></svg>